<svg xmlns="http://www.w3.org/2000/svg" width="900" height="420"
     viewBox="0 0 900 420" font-family="sans-serif">
  <rect width="900" height="420" fill="white"/>
  <text x="70" y="24" font-size="15" fill="#222">Bankroll — kelly + I18, 6D S17</text>
  <text x="880" y="24" font-size="12" fill="#666" text-anchor="end">
    94,200 rounds &#183; start $50,000 &#183; final $229,862 &#183; min $43,712 &#183; max $255,200</text>
  <line x1="70" y1="380.0" x2="880" y2="380.0" stroke="#ddd" stroke-width="1"/><text x="62" y="384.0" text-anchor="end" font-size="11" fill="#666">$43,712</text><line x1="70" y1="295.0" x2="880" y2="295.0" stroke="#ddd" stroke-width="1"/><text x="62" y="299.0" text-anchor="end" font-size="11" fill="#666">$96,584</text><line x1="70" y1="210.0" x2="880" y2="210.0" stroke="#ddd" stroke-width="1"/><text x="62" y="214.0" text-anchor="end" font-size="11" fill="#666">$149,456</text><line x1="70" y1="125.0" x2="880" y2="125.0" stroke="#ddd" stroke-width="1"/><text x="62" y="129.0" text-anchor="end" font-size="11" fill="#666">$202,328</text><line x1="70" y1="40.0" x2="880" y2="40.0" stroke="#ddd" stroke-width="1"/><text x="62" y="44.0" text-anchor="end" font-size="11" fill="#666">$255,200</text>
  <line x1="70" y1="369.9" x2="880" y2="369.9"
        stroke="#888" stroke-width="1" stroke-dasharray="5,4"/>
  <polyline points="70.0,369.9 70.2,370.3 70.4,370.1 70.6,369.9 70.8,368.7 71.0,371.6 71.2,371.2 71.4,371.3 71.6,370.9 71.8,370.0 72.0,371.7 72.2,371.4 72.4,371.3 72.6,371.7 72.8,371.7 73.0,371.4 73.2,371.2 73.4,371.1 73.6,370.3 73.8,369.0 74.0,369.1 74.2,369.4 74.4,369.2 74.5,368.8 74.7,368.0 74.9,366.3 75.1,367.7 75.3,367.1 75.5,367.6 75.7,367.1 75.9,367.0 76.1,366.9 76.3,366.3 76.5,364.4 76.7,364.5 76.9,364.8 77.1,364.8 77.3,364.9 77.5,364.8 77.7,364.5 77.9,364.0 78.1,363.7 78.3,362.6 78.5,362.3 78.7,362.8 78.9,362.6 79.1,363.2 79.3,363.5 79.5,363.4 79.7,363.7 79.9,363.5 80.1,363.2 80.3,362.8 80.5,362.8 80.7,362.8 80.9,362.8 81.1,362.8 81.3,362.8 81.5,363.1 81.7,363.8 81.9,364.1 82.1,364.9 82.3,365.0 82.5,364.2 82.7,361.0 82.9,362.6 83.1,363.0 83.2,362.7 83.4,363.9 83.6,364.3 83.8,365.1 84.0,365.0 84.2,364.7 84.4,364.5 84.6,364.4 84.8,364.2 85.0,364.1 85.2,364.3 85.4,364.6 85.6,364.1 85.8,364.7 86.0,364.5 86.2,364.4 86.4,364.0 86.6,363.6 86.8,361.9 87.0,363.2 87.2,362.8 87.4,362.5 87.6,361.5 87.8,361.0 88.0,358.8 88.2,356.6 88.4,355.7 88.6,355.7 88.8,355.7 89.0,355.5 89.2,355.5 89.4,355.7 89.6,360.3 89.8,360.5 90.0,360.6 90.2,361.2 90.4,361.6 90.6,361.7 90.8,360.8 91.0,361.4 91.2,360.4 91.4,360.2 91.6,360.1 91.8,360.2 92.0,359.8 92.1,359.5 92.3,359.3 92.5,359.5 92.7,360.0 92.9,361.9 93.1,366.2 93.3,367.8 93.5,366.5 93.7,367.1 93.9,370.9 94.1,371.4 94.3,371.4 94.5,371.2 94.7,372.1 94.9,371.2 95.1,371.2 95.3,370.7 95.5,371.8 95.7,371.1 95.9,374.8 96.1,374.6 96.3,374.4 96.5,374.6 96.7,373.9 96.9,370.2 97.1,370.4 97.3,370.3 97.5,369.9 97.7,370.0 97.9,369.9 98.1,368.4 98.3,368.3 98.5,368.5 98.7,368.3 98.9,367.8 99.1,367.3 99.3,368.3 99.5,368.1 99.7,367.8 99.9,367.7 100.1,367.7 100.3,367.2 100.5,365.7 100.7,363.3 100.8,363.3 101.0,365.9 101.2,365.5 101.4,366.5 101.6,368.7 101.8,368.4 102.0,368.7 102.2,371.4 102.4,371.5 102.6,371.6 102.8,371.7 103.0,371.4 103.2,371.3 103.4,371.4 103.6,372.5 103.8,372.4 104.0,372.1 104.2,372.0 104.4,372.3 104.6,372.3 104.8,372.1 105.0,372.8 105.2,371.8 105.4,369.4 105.6,369.5 105.8,366.1 106.0,365.8 106.2,365.8 106.4,365.1 106.6,364.8 106.8,364.8 107.0,365.4 107.2,364.9 107.4,365.1 107.6,364.7 107.8,366.7 108.0,366.5 108.2,365.3 108.4,365.8 108.6,366.0 108.8,367.7 109.0,367.8 109.2,368.4 109.4,368.0 109.6,368.6 109.7,365.2 109.9,363.5 110.1,364.7 110.3,363.6 110.5,363.8 110.7,363.1 110.9,368.1 111.1,370.3 111.3,370.1 111.5,371.1 111.7,369.4 111.9,368.1 112.1,367.7 112.3,367.1 112.5,366.9 112.7,366.3 112.9,366.6 113.1,366.1 113.3,366.0 113.5,366.1 113.7,367.2 113.9,367.3 114.1,367.4 114.3,367.8 114.5,367.8 114.7,367.5 114.9,368.6 115.1,369.6 115.3,369.2 115.5,367.9 115.7,368.0 115.9,368.6 116.1,368.6 116.3,369.0 116.5,368.6 116.7,366.9 116.9,364.8 117.1,365.7 117.3,366.2 117.5,360.9 117.7,359.0 117.9,359.3 118.1,359.2 118.3,359.6 118.4,359.9 118.6,360.0 118.8,361.6 119.0,361.3 119.2,358.8 119.4,358.8 119.6,359.6 119.8,360.0 120.0,360.1 120.2,360.2 120.4,361.4 120.6,362.5 120.8,365.1 121.0,364.8 121.2,365.8 121.4,365.8 121.6,365.4 121.8,364.6 122.0,364.3 122.2,364.2 122.4,364.5 122.6,364.3 122.8,364.5 123.0,364.6 123.2,365.2 123.4,363.2 123.6,362.7 123.8,361.2 124.0,361.1 124.2,360.9 124.4,360.9 124.6,360.5 124.8,358.9 125.0,358.6 125.2,358.7 125.4,358.4 125.6,359.7 125.8,360.5 126.0,360.8 126.2,360.3 126.4,360.6 126.6,360.6 126.8,360.5 127.0,360.6 127.2,363.5 127.3,363.3 127.5,364.5 127.7,364.6 127.9,364.4 128.1,363.5 128.3,364.7 128.5,364.4 128.7,363.9 128.9,364.0 129.1,364.5 129.3,364.7 129.5,364.8 129.7,364.7 129.9,364.0 130.1,364.1 130.3,364.0 130.5,364.3 130.7,363.8 130.9,363.9 131.1,364.1 131.3,364.2 131.5,364.2 131.7,366.8 131.9,366.8 132.1,366.8 132.3,366.8 132.5,367.4 132.7,368.0 132.9,368.3 133.1,368.4 133.3,370.9 133.5,370.8 133.7,371.0 133.9,371.1 134.1,371.5 134.3,371.0 134.5,370.8 134.7,370.7 134.9,371.1 135.1,370.9 135.3,372.2 135.5,373.9 135.7,374.0 135.9,372.9 136.0,372.6 136.2,372.4 136.4,372.0 136.6,371.8 136.8,374.9 137.0,377.0 137.2,376.3 137.4,378.1 137.6,377.8 137.8,377.7 138.0,378.4 138.2,378.1 138.4,377.7 138.6,377.9 138.8,377.2 139.0,377.2 139.2,377.2 139.4,377.4 139.6,377.2 139.8,375.1 140.0,375.6 140.2,374.9 140.4,374.7 140.6,373.9 140.8,373.8 141.0,373.8 141.2,373.7 141.4,373.5 141.6,373.3 141.8,374.8 142.0,373.2 142.2,373.5 142.4,372.0 142.6,372.4 142.8,372.5 143.0,372.2 143.2,372.1 143.4,371.4 143.6,371.5 143.8,371.5 144.0,370.7 144.2,372.6 144.4,372.1 144.6,371.0 144.8,370.8 144.9,370.8 145.1,370.8 145.3,374.1 145.5,373.9 145.7,374.4 145.9,374.1 146.1,374.1 146.3,374.3 146.5,373.9 146.7,373.1 146.9,372.7 147.1,373.1 147.3,372.5 147.5,370.9 147.7,370.9 147.9,370.0 148.1,367.5 148.3,365.6 148.5,366.2 148.7,365.8 148.9,366.2 149.1,366.4 149.3,366.5 149.5,365.9 149.7,364.6 149.9,362.6 150.1,363.1 150.3,363.1 150.5,363.1 150.7,363.0 150.9,363.0 151.1,363.2 151.3,363.1 151.5,363.2 151.7,363.5 151.9,363.8 152.1,363.7 152.3,358.0 152.5,358.9 152.7,360.0 152.9,359.4 153.1,359.2 153.3,359.6 153.5,359.9 153.6,359.8 153.8,359.1 154.0,361.3 154.2,362.1 154.4,362.3 154.6,362.0 154.8,361.7 155.0,361.8 155.2,361.1 155.4,362.5 155.6,362.1 155.8,362.3 156.0,362.6 156.2,363.8 156.4,362.4 156.6,362.2 156.8,362.1 157.0,362.6 157.2,362.3 157.4,363.2 157.6,363.2 157.8,363.6 158.0,363.5 158.2,363.2 158.4,362.9 158.6,362.1 158.8,362.4 159.0,362.4 159.2,362.7 159.4,362.3 159.6,362.0 159.8,362.0 160.0,362.3 160.2,360.7 160.4,358.8 160.6,362.9 160.8,363.2 161.0,360.8 161.2,363.5 161.4,363.6 161.6,362.7 161.8,362.3 162.0,360.1 162.2,359.4 162.4,360.0 162.5,359.9 162.7,360.2 162.9,359.9 163.1,360.0 163.3,361.0 163.5,358.8 163.7,362.9 163.9,363.2 164.1,363.8 164.3,363.8 164.5,363.9 164.7,363.8 164.9,361.6 165.1,361.4 165.3,360.8 165.5,361.2 165.7,361.9 165.9,361.9 166.1,360.2 166.3,355.6 166.5,355.5 166.7,354.6 166.9,353.7 167.1,353.6 167.3,353.6 167.5,353.5 167.7,354.3 167.9,354.4 168.1,353.7 168.3,352.9 168.5,352.6 168.7,351.2 168.9,354.0 169.1,353.9 169.3,353.5 169.5,356.0 169.7,356.1 169.9,356.4 170.1,356.5 170.3,356.2 170.5,356.3 170.7,354.7 170.9,354.8 171.1,354.7 171.2,353.8 171.4,353.5 171.6,353.4 171.8,354.6 172.0,359.3 172.2,358.8 172.4,358.6 172.6,357.9 172.8,363.6 173.0,363.9 173.2,363.8 173.4,363.7 173.6,364.4 173.8,363.3 174.0,363.0 174.2,361.7 174.4,362.3 174.6,362.8 174.8,362.4 175.0,362.6 175.2,363.1 175.4,366.1 175.6,365.6 175.8,366.7 176.0,366.7 176.2,366.7 176.4,366.5 176.6,366.5 176.8,367.4 177.0,367.5 177.2,367.3 177.4,365.7 177.6,365.5 177.8,364.5 178.0,364.4 178.2,364.8 178.4,365.3 178.6,366.9 178.8,366.7 179.0,365.3 179.2,361.8 179.4,362.0 179.6,361.4 179.8,360.2 180.0,360.3 180.1,359.7 180.3,359.8 180.5,359.4 180.7,358.2 180.9,357.7 181.1,357.7 181.3,358.7 181.5,358.3 181.7,362.5 181.9,362.7 182.1,363.7 182.3,362.8 182.5,362.8 182.7,363.3 182.9,361.3 183.1,361.4 183.3,361.3 183.5,361.2 183.7,361.3 183.9,360.6 184.1,361.2 184.3,361.5 184.5,361.3 184.7,361.4 184.9,361.2 185.1,361.1 185.3,359.7 185.5,359.9 185.7,359.6 185.9,358.1 186.1,357.8 186.3,357.9 186.5,359.1 186.7,357.6 186.9,358.1 187.1,357.9 187.3,358.3 187.5,358.2 187.7,358.0 187.9,357.9 188.1,358.8 188.3,360.7 188.5,361.1 188.7,362.0 188.9,362.2 189.0,361.8 189.2,361.3 189.4,361.3 189.6,360.3 189.8,360.6 190.0,360.1 190.2,359.8 190.4,359.8 190.6,360.8 190.8,361.2 191.0,360.9 191.2,361.0 191.4,361.2 191.6,361.1 191.8,361.9 192.0,361.8 192.2,359.6 192.4,359.8 192.6,359.6 192.8,359.1 193.0,359.2 193.2,359.0 193.4,359.4 193.6,359.1 193.8,358.6 194.0,359.0 194.2,359.6 194.4,359.9 194.6,367.6 194.8,367.7 195.0,367.0 195.2,367.2 195.4,368.4 195.6,367.3 195.8,368.3 196.0,367.7 196.2,367.8 196.4,366.3 196.6,365.7 196.8,366.9 197.0,365.9 197.2,365.5 197.4,365.7 197.6,365.8 197.7,366.2 197.9,366.2 198.1,366.1 198.3,366.4 198.5,366.0 198.7,365.4 198.9,365.6 199.1,365.4 199.3,365.5 199.5,365.5 199.7,365.8 199.9,366.0 200.1,366.0 200.3,366.1 200.5,365.9 200.7,366.7 200.9,367.4 201.1,367.1 201.3,367.7 201.5,367.5 201.7,367.3 201.9,367.0 202.1,366.6 202.3,367.1 202.5,368.3 202.7,375.5 202.9,374.9 203.1,375.0 203.3,373.4 203.5,373.4 203.7,373.4 203.9,371.8 204.1,371.3 204.3,370.9 204.5,370.7 204.7,370.7 204.9,370.4 205.1,370.8 205.3,371.0 205.5,373.9 205.7,374.0 205.9,376.7 206.1,376.5 206.3,377.1 206.5,376.4 206.6,376.5 206.8,377.5 207.0,377.6 207.2,377.6 207.4,377.4 207.6,377.2 207.8,377.3 208.0,377.3 208.2,377.3 208.4,377.7 208.6,375.7 208.8,375.2 209.0,375.0 209.2,375.3 209.4,376.3 209.6,376.1 209.8,376.0 210.0,376.1 210.2,375.4 210.4,375.0 210.6,374.9 210.8,375.0 211.0,375.1 211.2,375.6 211.4,374.8 211.6,375.7 211.8,374.7 212.0,374.9 212.2,376.0 212.4,375.6 212.6,375.8 212.8,375.8 213.0,375.6 213.2,375.6 213.4,375.3 213.6,375.7 213.8,375.2 214.0,374.5 214.2,374.6 214.4,374.4 214.6,374.3 214.8,374.0 215.0,374.3 215.2,373.9 215.3,372.9 215.5,373.8 215.7,373.9 215.9,373.6 216.1,372.4 216.3,372.1 216.5,372.0 216.7,372.0 216.9,372.0 217.1,371.6 217.3,372.8 217.5,374.8 217.7,374.9 217.9,375.7 218.1,373.3 218.3,373.4 218.5,373.6 218.7,373.9 218.9,374.0 219.1,375.5 219.3,375.3 219.5,372.3 219.7,372.3 219.9,371.0 220.1,370.0 220.3,369.6 220.5,369.6 220.7,368.6 220.9,368.1 221.1,368.7 221.3,368.3 221.5,370.3 221.7,370.3 221.9,370.5 222.1,371.3 222.3,371.2 222.5,370.9 222.7,370.9 222.9,370.6 223.1,370.9 223.3,371.3 223.5,371.2 223.7,370.4 223.9,370.5 224.1,370.9 224.2,373.0 224.4,373.0 224.6,372.9 224.8,372.6 225.0,373.7 225.2,374.4 225.4,374.0 225.6,373.7 225.8,370.9 226.0,371.1 226.2,371.0 226.4,370.9 226.6,371.1 226.8,370.9 227.0,372.5 227.2,372.1 227.4,370.9 227.6,371.0 227.8,370.8 228.0,366.4 228.2,367.5 228.4,367.9 228.6,367.7 228.8,364.5 229.0,364.7 229.2,364.8 229.4,364.6 229.6,365.6 229.8,365.5 230.0,365.5 230.2,366.0 230.4,365.7 230.6,365.6 230.8,365.7 231.0,365.5 231.2,366.1 231.4,366.2 231.6,366.5 231.8,366.5 232.0,366.8 232.2,368.9 232.4,369.0 232.6,370.0 232.8,370.2 232.9,370.7 233.1,370.5 233.3,372.3 233.5,374.8 233.7,374.8 233.9,374.9 234.1,374.9 234.3,375.1 234.5,375.2 234.7,373.6 234.9,373.5 235.1,373.1 235.3,373.4 235.5,372.9 235.7,373.1 235.9,370.4 236.1,369.9 236.3,372.0 236.5,371.4 236.7,373.9 236.9,374.0 237.1,373.6 237.3,373.2 237.5,373.0 237.7,372.9 237.9,372.2 238.1,372.2 238.3,372.1 238.5,372.4 238.7,372.1 238.9,371.7 239.1,374.6 239.3,374.6 239.5,374.8 239.7,374.7 239.9,374.4 240.1,374.6 240.3,374.7 240.5,374.9 240.7,375.4 240.9,375.1 241.1,374.9 241.3,375.1 241.5,375.5 241.7,374.6 241.8,372.7 242.0,372.7 242.2,372.0 242.4,372.1 242.6,372.6 242.8,372.3 243.0,373.2 243.2,374.1 243.4,373.1 243.6,374.0 243.8,376.1 244.0,375.2 244.2,376.5 244.4,376.1 244.6,376.2 244.8,376.5 245.0,377.6 245.2,377.5 245.4,379.2 245.6,378.8 245.8,378.8 246.0,377.5 246.2,375.0 246.4,374.6 246.6,374.3 246.8,374.2 247.0,373.1 247.2,373.4 247.4,373.0 247.6,373.0 247.8,372.8 248.0,372.6 248.2,371.8 248.4,371.8 248.6,371.8 248.8,372.2 249.0,373.1 249.2,371.3 249.4,366.7 249.6,366.7 249.8,366.0 250.0,367.4 250.2,367.6 250.4,369.4 250.5,369.5 250.7,369.8 250.9,370.2 251.1,370.3 251.3,370.4 251.5,372.7 251.7,372.2 251.9,371.0 252.1,370.9 252.3,371.4 252.5,371.2 252.7,371.7 252.9,371.3 253.1,371.6 253.3,371.6 253.5,371.7 253.7,371.8 253.9,372.4 254.1,372.6 254.3,372.7 254.5,372.5 254.7,372.3 254.9,372.4 255.1,372.6 255.3,372.2 255.5,371.8 255.7,370.4 255.9,367.6 256.1,367.5 256.3,367.8 256.5,367.6 256.7,368.1 256.9,368.4 257.1,365.2 257.3,366.1 257.5,366.1 257.7,366.2 257.9,366.7 258.1,366.2 258.3,366.4 258.5,366.7 258.7,366.6 258.9,366.5 259.1,366.6 259.3,367.0 259.4,367.2 259.6,367.5 259.8,367.6 260.0,368.0 260.2,367.6 260.4,367.2 260.6,366.5 260.8,366.6 261.0,366.5 261.2,366.2 261.4,365.8 261.6,364.7 261.8,365.0 262.0,367.4 262.2,367.4 262.4,366.2 262.6,366.3 262.8,367.7 263.0,367.6 263.2,367.8 263.4,367.4 263.6,369.2 263.8,370.1 264.0,368.3 264.2,367.9 264.4,367.7 264.6,365.7 264.8,366.4 265.0,365.3 265.2,364.8 265.4,364.6 265.6,366.0 265.8,366.0 266.0,366.1 266.2,366.7 266.4,366.7 266.6,367.3 266.8,369.9 267.0,371.4 267.2,372.0 267.4,371.8 267.6,370.8 267.8,369.0 268.0,368.3 268.1,368.7 268.3,368.5 268.5,367.6 268.7,367.9 268.9,367.7 269.1,368.0 269.3,368.6 269.5,368.0 269.7,367.9 269.9,368.7 270.1,368.4 270.3,368.6 270.5,368.8 270.7,368.2 270.9,368.7 271.1,368.6 271.3,368.3 271.5,368.4 271.7,367.1 271.9,367.0 272.1,366.5 272.3,366.4 272.5,366.5 272.7,366.6 272.9,367.4 273.1,367.7 273.3,367.8 273.5,369.2 273.7,369.4 273.9,366.3 274.1,366.3 274.3,360.5 274.5,360.4 274.7,360.2 274.9,360.6 275.1,360.7 275.3,360.6 275.5,360.3 275.7,360.7 275.9,360.8 276.1,360.5 276.3,360.4 276.5,360.2 276.7,359.9 276.9,359.0 277.0,359.3 277.2,360.1 277.4,360.2 277.6,360.7 277.8,361.0 278.0,362.2 278.2,361.5 278.4,361.6 278.6,361.8 278.8,362.6 279.0,363.1 279.2,363.8 279.4,363.8 279.6,366.2 279.8,366.7 280.0,366.4 280.2,365.0 280.4,363.6 280.6,364.0 280.8,364.4 281.0,363.8 281.2,363.9 281.4,363.8 281.6,363.8 281.8,363.6 282.0,363.3 282.2,362.4 282.4,362.8 282.6,363.0 282.8,361.5 283.0,364.0 283.2,364.1 283.4,364.0 283.6,364.4 283.8,364.5 284.0,364.9 284.2,365.3 284.4,365.5 284.6,365.2 284.8,365.0 285.0,364.8 285.2,364.6 285.4,364.2 285.6,363.1 285.7,363.2 285.9,363.5 286.1,363.4 286.3,363.2 286.5,361.2 286.7,361.0 286.9,358.4 287.1,359.7 287.3,359.8 287.5,358.4 287.7,359.9 287.9,361.6 288.1,361.9 288.3,362.2 288.5,362.0 288.7,362.7 288.9,362.3 289.1,361.2 289.3,361.2 289.5,360.5 289.7,360.3 289.9,359.7 290.1,357.8 290.3,358.1 290.5,357.8 290.7,357.4 290.9,357.4 291.1,357.7 291.3,358.4 291.5,358.6 291.7,360.0 291.9,355.7 292.1,355.1 292.3,359.1 292.5,359.5 292.7,359.3 292.9,358.1 293.1,358.4 293.3,357.5 293.5,353.9 293.7,354.7 293.9,354.2 294.1,354.3 294.3,354.8 294.5,355.0 294.6,353.4 294.8,354.4 295.0,354.3 295.2,354.2 295.4,353.7 295.6,353.7 295.8,353.7 296.0,354.2 296.2,354.1 296.4,353.8 296.6,353.6 296.8,353.5 297.0,352.9 297.2,353.1 297.4,353.3 297.6,353.6 297.8,353.4 298.0,354.2 298.2,351.7 298.4,352.3 298.6,352.3 298.8,351.7 299.0,351.5 299.2,352.8 299.4,353.2 299.6,352.8 299.8,353.3 300.0,352.9 300.2,352.7 300.4,354.6 300.6,354.5 300.8,354.5 301.0,354.6 301.2,354.0 301.4,354.8 301.6,354.6 301.8,354.7 302.0,355.3 302.2,355.9 302.4,356.1 302.6,356.2 302.8,353.8 303.0,353.7 303.2,354.2 303.3,353.0 303.5,354.3 303.7,352.7 303.9,352.4 304.1,351.6 304.3,350.0 304.5,348.9 304.7,348.7 304.9,346.9 305.1,347.1 305.3,347.6 305.5,347.8 305.7,348.2 305.9,347.7 306.1,347.5 306.3,347.4 306.5,347.4 306.7,345.8 306.9,345.5 307.1,345.0 307.3,344.9 307.5,344.9 307.7,344.7 307.9,344.6 308.1,343.1 308.3,343.1 308.5,343.6 308.7,343.6 308.9,343.4 309.1,342.8 309.3,342.8 309.5,342.6 309.7,342.1 309.9,342.1 310.1,341.4 310.3,341.9 310.5,342.3 310.7,342.1 310.9,341.8 311.1,341.6 311.3,341.8 311.5,340.5 311.7,340.3 311.9,340.2 312.1,340.0 312.2,339.9 312.4,339.8 312.6,337.0 312.8,337.0 313.0,335.5 313.2,335.0 313.4,335.1 313.6,335.1 313.8,335.8 314.0,335.8 314.2,336.0 314.4,336.0 314.6,336.1 314.8,338.6 315.0,340.3 315.2,340.0 315.4,340.0 315.6,340.2 315.8,340.0 316.0,339.4 316.2,341.1 316.4,339.4 316.6,336.6 316.8,337.4 317.0,341.2 317.2,341.5 317.4,337.3 317.6,337.7 317.8,338.0 318.0,337.6 318.2,337.7 318.4,330.8 318.6,330.4 318.8,330.7 319.0,330.6 319.2,330.3 319.4,333.3 319.6,332.8 319.8,332.5 320.0,332.4 320.2,332.3 320.4,329.6 320.6,329.7 320.8,326.2 320.9,324.7 321.1,324.4 321.3,324.9 321.5,325.2 321.7,325.4 321.9,325.6 322.1,327.9 322.3,326.6 322.5,326.7 322.7,320.7 322.9,322.7 323.1,322.7 323.3,323.5 323.5,322.3 323.7,322.0 323.9,321.8 324.1,319.8 324.3,319.3 324.5,322.2 324.7,322.2 324.9,322.5 325.1,316.5 325.3,317.2 325.5,317.1 325.7,317.2 325.9,317.7 326.1,322.8 326.3,326.7 326.5,326.4 326.7,326.3 326.9,325.9 327.1,326.2 327.3,325.9 327.5,326.4 327.7,326.1 327.9,326.4 328.1,325.1 328.3,324.9 328.5,325.6 328.7,325.6 328.9,325.4 329.1,326.0 329.3,323.9 329.5,321.4 329.7,323.7 329.8,324.2 330.0,324.2 330.2,324.5 330.4,324.4 330.6,324.0 330.8,324.4 331.0,323.8 331.2,323.8 331.4,324.7 331.6,322.3 331.8,322.4 332.0,318.4 332.2,318.1 332.4,319.8 332.6,320.1 332.8,320.7 333.0,319.4 333.2,319.0 333.4,318.9 333.6,319.1 333.8,316.2 334.0,315.9 334.2,316.1 334.4,316.1 334.6,316.5 334.8,316.8 335.0,317.4 335.2,319.7 335.4,319.7 335.6,318.9 335.8,320.3 336.0,317.5 336.2,316.1 336.4,316.8 336.6,314.2 336.8,315.0 337.0,312.7 337.2,311.0 337.4,311.5 337.6,310.5 337.8,311.0 338.0,311.7 338.2,307.8 338.4,308.3 338.5,308.2 338.7,308.5 338.9,308.9 339.1,308.0 339.3,308.4 339.5,308.7 339.7,308.8 339.9,309.4 340.1,310.4 340.3,313.5 340.5,313.7 340.7,313.8 340.9,313.7 341.1,313.3 341.3,311.7 341.5,312.4 341.7,312.8 341.9,312.6 342.1,314.3 342.3,313.1 342.5,313.2 342.7,313.4 342.9,315.4 343.1,315.4 343.3,315.5 343.5,315.6 343.7,315.8 343.9,315.1 344.1,313.2 344.3,313.0 344.5,313.0 344.7,313.0 344.9,313.0 345.1,312.2 345.3,312.7 345.5,312.3 345.7,312.0 345.9,309.4 346.1,306.2 346.3,304.9 346.5,304.6 346.7,304.6 346.9,304.6 347.1,306.2 347.3,307.0 347.4,307.1 347.6,307.3 347.8,307.2 348.0,306.8 348.2,306.4 348.4,307.6 348.6,308.0 348.8,308.0 349.0,307.2 349.2,307.3 349.4,306.4 349.6,306.3 349.8,307.2 350.0,308.8 350.2,308.7 350.4,308.7 350.6,308.9 350.8,305.8 351.0,306.0 351.2,307.0 351.4,307.1 351.6,305.1 351.8,302.1 352.0,302.0 352.2,301.8 352.4,301.3 352.6,303.9 352.8,302.6 353.0,302.8 353.2,298.7 353.4,299.2 353.6,299.2 353.8,298.5 354.0,299.6 354.2,301.0 354.4,298.8 354.6,297.5 354.8,300.4 355.0,301.0 355.2,301.3 355.4,301.5 355.6,301.1 355.8,300.7 356.0,301.6 356.1,301.0 356.3,300.7 356.5,300.8 356.7,301.1 356.9,300.7 357.1,295.2 357.3,294.7 357.5,293.7 357.7,293.4 357.9,291.3 358.1,291.3 358.3,291.6 358.5,293.3 358.7,293.8 358.9,292.5 359.1,288.9 359.3,288.3 359.5,287.2 359.7,287.6 359.9,288.6 360.1,289.9 360.3,289.8 360.5,290.5 360.7,289.3 360.9,285.8 361.1,288.2 361.3,289.4 361.5,286.0 361.7,286.2 361.9,283.4 362.1,283.1 362.3,282.8 362.5,283.1 362.7,285.8 362.9,285.0 363.1,285.2 363.3,285.6 363.5,286.0 363.7,287.0 363.9,286.6 364.1,286.4 364.3,281.7 364.5,275.8 364.7,275.7 364.9,282.3 365.0,282.4 365.2,282.8 365.4,283.4 365.6,283.5 365.8,283.4 366.0,285.1 366.2,287.4 366.4,283.2 366.6,284.7 366.8,284.3 367.0,283.6 367.2,283.6 367.4,284.0 367.6,284.3 367.8,284.6 368.0,285.0 368.2,285.2 368.4,287.7 368.6,287.6 368.8,288.5 369.0,288.9 369.2,288.9 369.4,288.6 369.6,289.3 369.8,288.6 370.0,288.6 370.2,289.3 370.4,289.3 370.6,289.5 370.8,289.1 371.0,289.1 371.2,288.3 371.4,288.1 371.6,287.6 371.8,285.7 372.0,286.0 372.2,284.6 372.4,284.8 372.6,285.8 372.8,286.0 373.0,286.0 373.2,286.0 373.4,286.5 373.6,287.2 373.8,287.2 373.9,286.8 374.1,286.5 374.3,286.5 374.5,286.4 374.7,286.3 374.9,285.7 375.1,285.6 375.3,286.2 375.5,284.8 375.7,281.9 375.9,288.0 376.1,288.8 376.3,288.7 376.5,289.2 376.7,288.2 376.9,288.2 377.1,293.8 377.3,294.0 377.5,293.9 377.7,293.9 377.9,291.5 378.1,293.2 378.3,293.5 378.5,293.6 378.7,293.6 378.9,294.0 379.1,297.6 379.3,297.9 379.5,297.7 379.7,297.6 379.9,301.1 380.1,301.1 380.3,300.3 380.5,300.7 380.7,301.2 380.9,303.6 381.1,304.5 381.3,305.3 381.5,304.7 381.7,305.4 381.9,304.3 382.1,304.5 382.3,306.6 382.5,307.6 382.6,307.9 382.8,306.8 383.0,306.6 383.2,305.9 383.4,306.9 383.6,306.6 383.8,307.5 384.0,304.8 384.2,305.0 384.4,305.2 384.6,305.6 384.8,305.0 385.0,305.2 385.2,305.5 385.4,305.0 385.6,304.8 385.8,304.4 386.0,301.7 386.2,301.8 386.4,301.5 386.6,301.3 386.8,301.5 387.0,301.5 387.2,302.1 387.4,302.1 387.6,301.9 387.8,302.1 388.0,298.0 388.2,298.8 388.4,298.3 388.6,297.5 388.8,297.6 389.0,298.2 389.2,298.1 389.4,295.1 389.6,294.9 389.8,296.1 390.0,296.4 390.2,294.0 390.4,291.1 390.6,288.9 390.8,289.2 391.0,290.8 391.2,291.4 391.4,291.7 391.5,291.0 391.7,291.2 391.9,291.1 392.1,283.5 392.3,284.9 392.5,279.7 392.7,279.5 392.9,280.0 393.1,282.5 393.3,282.0 393.5,282.1 393.7,282.2 393.9,280.8 394.1,280.8 394.3,281.2 394.5,286.0 394.7,283.7 394.9,283.6 395.1,285.5 395.3,284.6 395.5,284.6 395.7,287.2 395.9,287.9 396.1,287.9 396.3,288.4 396.5,289.9 396.7,290.3 396.9,290.5 397.1,289.9 397.3,290.0 397.5,289.5 397.7,297.1 397.9,297.5 398.1,298.6 398.3,298.9 398.5,298.5 398.7,298.9 398.9,298.5 399.1,298.7 399.3,298.9 399.5,299.0 399.7,299.4 399.9,299.5 400.1,299.4 400.2,299.4 400.4,298.9 400.6,304.3 400.8,304.4 401.0,304.6 401.2,304.8 401.4,304.9 401.6,306.0 401.8,306.0 402.0,307.5 402.2,309.5 402.4,309.7 402.6,308.6 402.8,309.3 403.0,305.4 403.2,307.2 403.4,307.7 403.6,310.1 403.8,309.5 404.0,309.8 404.2,309.8 404.4,313.1 404.6,313.1 404.8,312.9 405.0,312.7 405.2,312.6 405.4,312.8 405.6,313.1 405.8,310.3 406.0,309.2 406.2,306.3 406.4,305.9 406.6,305.6 406.8,306.4 407.0,305.2 407.2,305.4 407.4,304.7 407.6,304.6 407.8,304.7 408.0,304.4 408.2,304.3 408.4,304.6 408.6,305.2 408.8,306.3 409.0,306.0 409.1,305.6 409.3,305.4 409.5,305.5 409.7,305.1 409.9,305.8 410.1,306.1 410.3,305.0 410.5,307.3 410.7,307.4 410.9,307.7 411.1,307.5 411.3,307.6 411.5,307.0 411.7,307.2 411.9,307.0 412.1,307.2 412.3,307.2 412.5,306.1 412.7,304.2 412.9,305.0 413.1,305.7 413.3,305.4 413.5,303.9 413.7,304.8 413.9,304.3 414.1,305.4 414.3,306.8 414.5,305.1 414.7,305.1 414.9,306.4 415.1,299.5 415.3,298.6 415.5,298.5 415.7,298.3 415.9,299.2 416.1,299.1 416.3,299.0 416.5,299.1 416.7,299.3 416.9,298.1 417.1,299.6 417.3,297.8 417.5,298.5 417.7,301.7 417.8,299.6 418.0,297.7 418.2,296.9 418.4,296.9 418.6,296.6 418.8,296.5 419.0,297.2 419.2,295.4 419.4,295.4 419.6,295.4 419.8,295.2 420.0,295.8 420.2,295.0 420.4,293.7 420.6,297.9 420.8,295.7 421.0,293.9 421.2,293.2 421.4,294.2 421.6,294.1 421.8,294.3 422.0,299.1 422.2,292.9 422.4,292.7 422.6,296.3 422.8,296.0 423.0,296.8 423.2,297.7 423.4,297.8 423.6,297.1 423.8,299.5 424.0,299.2 424.2,299.2 424.4,300.4 424.6,302.4 424.8,303.8 425.0,303.9 425.2,303.8 425.4,303.9 425.6,304.0 425.8,304.0 426.0,304.0 426.2,303.6 426.4,303.4 426.6,303.6 426.7,304.2 426.9,304.3 427.1,304.4 427.3,303.3 427.5,302.8 427.7,303.3 427.9,302.8 428.1,304.0 428.3,303.3 428.5,303.3 428.7,303.6 428.9,303.9 429.1,303.8 429.3,304.1 429.5,303.3 429.7,303.5 429.9,306.7 430.1,308.6 430.3,309.0 430.5,309.1 430.7,308.6 430.9,308.6 431.1,308.4 431.3,303.8 431.5,303.4 431.7,303.7 431.9,304.7 432.1,303.9 432.3,300.3 432.5,301.3 432.7,295.9 432.9,295.6 433.1,295.6 433.3,291.7 433.5,292.5 433.7,292.8 433.9,293.1 434.1,293.4 434.3,292.8 434.5,293.6 434.7,293.3 434.9,295.4 435.1,295.6 435.3,295.5 435.4,296.7 435.6,296.9 435.8,296.8 436.0,296.9 436.2,298.3 436.4,298.0 436.6,291.3 436.8,294.7 437.0,291.2 437.2,289.9 437.4,289.9 437.6,291.6 437.8,291.6 438.0,292.3 438.2,287.2 438.4,287.7 438.6,289.5 438.8,289.3 439.0,288.3 439.2,288.9 439.4,289.6 439.6,289.5 439.8,291.4 440.0,287.8 440.2,287.6 440.4,287.6 440.6,288.1 440.8,288.1 441.0,288.5 441.2,288.2 441.4,287.3 441.6,292.7 441.8,287.5 442.0,288.1 442.2,288.7 442.4,287.8 442.6,291.0 442.8,294.4 443.0,294.2 443.2,294.7 443.4,295.1 443.6,293.9 443.8,294.7 444.0,290.2 444.2,286.8 444.3,284.6 444.5,284.7 444.7,284.4 444.9,283.3 445.1,287.4 445.3,286.1 445.5,286.0 445.7,286.2 445.9,286.6 446.1,286.9 446.3,287.9 446.5,287.9 446.7,285.5 446.9,284.4 447.1,292.4 447.3,292.5 447.5,290.3 447.7,290.8 447.9,291.9 448.1,291.6 448.3,288.0 448.5,288.5 448.7,288.4 448.9,286.7 449.1,290.0 449.3,289.9 449.5,290.9 449.7,288.8 449.9,289.9 450.1,292.2 450.3,292.0 450.5,292.6 450.7,291.8 450.9,291.8 451.1,291.8 451.3,291.9 451.5,291.8 451.7,292.1 451.9,292.2 452.1,293.9 452.3,293.2 452.5,294.5 452.7,294.5 452.9,294.5 453.0,294.3 453.2,293.8 453.4,293.4 453.6,289.2 453.8,288.9 454.0,289.1 454.2,282.9 454.4,281.9 454.6,282.8 454.8,283.8 455.0,283.9 455.2,279.5 455.4,278.5 455.6,278.7 455.8,279.0 456.0,278.5 456.2,279.5 456.4,280.7 456.6,284.3 456.8,283.3 457.0,283.2 457.2,283.0 457.4,283.0 457.6,283.2 457.8,283.2 458.0,282.5 458.2,283.1 458.4,283.0 458.6,275.9 458.8,274.8 459.0,274.7 459.2,274.9 459.4,274.6 459.6,274.9 459.8,274.9 460.0,275.6 460.2,276.1 460.4,273.4 460.6,273.1 460.8,272.8 461.0,273.0 461.2,272.3 461.4,270.3 461.6,270.8 461.8,270.6 461.9,270.6 462.1,270.7 462.3,272.4 462.5,270.7 462.7,270.3 462.9,267.8 463.1,267.8 463.3,267.0 463.5,264.2 463.7,259.6 463.9,258.4 464.1,258.4 464.3,258.3 464.5,255.3 464.7,253.3 464.9,247.9 465.1,247.0 465.3,246.2 465.5,246.0 465.7,245.9 465.9,246.6 466.1,248.0 466.3,248.6 466.5,248.6 466.7,245.5 466.9,246.1 467.1,245.4 467.3,245.0 467.5,243.8 467.7,244.8 467.9,242.8 468.1,243.9 468.3,242.9 468.5,242.9 468.7,242.9 468.9,238.9 469.1,238.1 469.3,232.3 469.5,233.1 469.7,233.2 469.9,233.1 470.1,233.4 470.3,232.4 470.5,230.8 470.6,230.5 470.8,230.2 471.0,230.5 471.2,230.7 471.4,229.3 471.6,229.5 471.8,229.6 472.0,227.5 472.2,225.3 472.4,225.2 472.6,225.2 472.8,228.5 473.0,228.5 473.2,228.7 473.4,228.7 473.6,227.0 473.8,228.6 474.0,229.9 474.2,231.1 474.4,232.4 474.6,232.7 474.8,234.9 475.0,234.6 475.2,234.3 475.4,233.9 475.6,239.7 475.8,239.9 476.0,240.0 476.2,239.3 476.4,242.7 476.6,243.7 476.8,243.5 477.0,242.0 477.2,250.3 477.4,250.6 477.6,250.1 477.8,250.6 478.0,250.4 478.2,250.1 478.4,251.1 478.6,251.3 478.8,247.1 479.0,247.2 479.2,247.9 479.4,244.8 479.5,245.3 479.7,244.9 479.9,244.3 480.1,242.1 480.3,242.5 480.5,240.8 480.7,240.8 480.9,242.0 481.1,241.8 481.3,243.6 481.5,244.3 481.7,244.6 481.9,234.2 482.1,234.0 482.3,233.9 482.5,235.6 482.7,236.5 482.9,241.1 483.1,243.3 483.3,242.4 483.5,242.1 483.7,241.6 483.9,243.0 484.1,243.2 484.3,242.8 484.5,241.9 484.7,242.5 484.9,242.6 485.1,242.9 485.3,243.0 485.5,243.0 485.7,244.4 485.9,246.8 486.1,241.6 486.3,241.6 486.5,239.2 486.7,239.8 486.9,239.0 487.1,238.6 487.3,238.2 487.5,236.7 487.7,237.7 487.9,239.6 488.1,238.0 488.2,234.6 488.4,230.6 488.6,229.5 488.8,222.8 489.0,222.4 489.2,222.6 489.4,225.0 489.6,222.5 489.8,224.0 490.0,224.4 490.2,224.7 490.4,224.9 490.6,224.6 490.8,224.8 491.0,224.5 491.2,226.6 491.4,228.9 491.6,229.4 491.8,228.1 492.0,227.1 492.2,228.2 492.4,228.1 492.6,228.1 492.8,228.1 493.0,228.7 493.2,228.8 493.4,229.2 493.6,228.0 493.8,227.6 494.0,227.9 494.2,227.7 494.4,227.4 494.6,228.1 494.8,227.5 495.0,224.7 495.2,224.0 495.4,224.0 495.6,222.3 495.8,222.4 496.0,222.2 496.2,221.7 496.4,219.7 496.6,216.2 496.8,215.9 497.0,223.4 497.1,222.7 497.3,222.6 497.5,222.6 497.7,222.7 497.9,223.1 498.1,223.3 498.3,221.6 498.5,223.1 498.7,222.8 498.9,222.7 499.1,228.9 499.3,229.0 499.5,225.1 499.7,226.1 499.9,226.5 500.1,225.9 500.3,226.4 500.5,226.6 500.7,227.5 500.9,227.2 501.1,228.2 501.3,230.7 501.5,229.1 501.7,227.9 501.9,227.9 502.1,226.5 502.3,226.1 502.5,225.4 502.7,226.2 502.9,229.4 503.1,229.1 503.3,227.6 503.5,227.9 503.7,227.9 503.9,229.5 504.1,228.8 504.3,226.9 504.5,226.7 504.7,218.2 504.9,216.4 505.1,213.6 505.3,213.4 505.5,213.3 505.7,212.8 505.8,214.4 506.0,214.3 506.2,213.8 506.4,214.3 506.6,214.4 506.8,214.6 507.0,214.4 507.2,214.7 507.4,214.7 507.6,215.3 507.8,211.9 508.0,214.7 508.2,215.1 508.4,210.4 508.6,208.1 508.8,207.9 509.0,206.1 509.2,205.9 509.4,209.1 509.6,214.9 509.8,214.8 510.0,214.8 510.2,216.4 510.4,215.1 510.6,214.4 510.8,216.0 511.0,216.1 511.2,216.8 511.4,211.6 511.6,206.2 511.8,206.6 512.0,206.8 512.2,206.6 512.4,205.3 512.6,204.7 512.8,205.9 513.0,208.8 513.2,209.0 513.4,209.3 513.6,205.3 513.8,204.1 514.0,206.5 514.2,206.0 514.4,207.1 514.6,202.8 514.7,200.5 514.9,198.9 515.1,199.6 515.3,195.9 515.5,196.5 515.7,197.1 515.9,199.5 516.1,201.1 516.3,201.9 516.5,200.7 516.7,196.9 516.9,197.0 517.1,197.3 517.3,190.5 517.5,191.4 517.7,189.4 517.9,190.7 518.1,189.2 518.3,186.9 518.5,184.6 518.7,184.4 518.9,184.2 519.1,184.5 519.3,188.5 519.5,188.0 519.7,182.7 519.9,180.9 520.1,180.8 520.3,180.8 520.5,180.5 520.7,180.1 520.9,180.1 521.1,180.5 521.3,181.3 521.5,182.7 521.7,184.8 521.9,186.7 522.1,188.0 522.3,188.6 522.5,188.0 522.7,188.0 522.9,188.3 523.1,189.9 523.3,192.8 523.4,188.0 523.6,188.0 523.8,187.5 524.0,194.6 524.2,189.4 524.4,194.4 524.6,193.1 524.8,193.9 525.0,194.0 525.2,194.2 525.4,194.3 525.6,194.0 525.8,196.5 526.0,196.6 526.2,200.3 526.4,203.1 526.6,202.5 526.8,201.8 527.0,201.6 527.2,201.5 527.4,201.6 527.6,204.0 527.8,203.1 528.0,202.4 528.2,204.9 528.4,199.6 528.6,199.1 528.8,199.2 529.0,199.3 529.2,202.8 529.4,203.1 529.6,203.1 529.8,197.7 530.0,201.2 530.2,201.1 530.4,201.2 530.6,201.6 530.8,201.6 531.0,202.9 531.2,201.5 531.4,201.7 531.6,205.8 531.8,208.8 532.0,209.2 532.2,209.2 532.3,210.5 532.5,212.5 532.7,210.9 532.9,211.1 533.1,213.8 533.3,213.3 533.5,211.1 533.7,210.6 533.9,207.8 534.1,210.3 534.3,213.2 534.5,214.8 534.7,213.6 534.9,213.1 535.1,215.9 535.3,214.9 535.5,216.5 535.7,215.1 535.9,216.9 536.1,216.7 536.3,215.1 536.5,214.4 536.7,214.3 536.9,214.4 537.1,213.8 537.3,215.1 537.5,211.6 537.7,217.9 537.9,219.2 538.1,217.8 538.3,213.8 538.5,211.9 538.7,212.1 538.9,212.7 539.1,212.2 539.3,206.6 539.5,206.5 539.7,208.6 539.9,207.1 540.1,207.0 540.3,208.1 540.5,208.1 540.7,206.1 540.9,204.6 541.0,202.8 541.2,201.4 541.4,201.3 541.6,200.9 541.8,199.7 542.0,194.1 542.2,191.6 542.4,185.3 542.6,185.5 542.8,184.4 543.0,184.0 543.2,182.5 543.4,182.1 543.6,182.2 543.8,182.1 544.0,184.7 544.2,184.1 544.4,186.2 544.6,186.0 544.8,185.9 545.0,185.7 545.2,185.4 545.4,183.2 545.6,183.1 545.8,183.4 546.0,187.3 546.2,187.2 546.4,185.2 546.6,183.9 546.8,179.1 547.0,179.4 547.2,179.2 547.4,178.5 547.6,178.3 547.8,178.0 548.0,176.6 548.2,177.8 548.4,178.3 548.6,177.4 548.8,178.0 549.0,174.3 549.2,174.2 549.4,174.4 549.6,175.9 549.8,172.2 549.9,170.7 550.1,171.4 550.3,171.7 550.5,171.2 550.7,170.6 550.9,167.6 551.1,167.6 551.3,168.0 551.5,164.6 551.7,166.8 551.9,169.4 552.1,168.9 552.3,168.9 552.5,169.7 552.7,171.5 552.9,171.8 553.1,171.3 553.3,170.2 553.5,170.3 553.7,170.8 553.9,168.4 554.1,168.3 554.3,170.3 554.5,170.2 554.7,170.5 554.9,168.9 555.1,169.2 555.3,169.3 555.5,165.8 555.7,161.5 555.9,162.0 556.1,161.2 556.3,160.1 556.5,159.3 556.7,159.9 556.9,160.3 557.1,156.6 557.3,155.8 557.5,161.3 557.7,161.3 557.9,161.6 558.1,157.1 558.3,157.4 558.5,158.4 558.6,158.9 558.8,159.0 559.0,157.8 559.2,158.0 559.4,157.9 559.6,157.3 559.8,157.2 560.0,160.2 560.2,159.7 560.4,164.9 560.6,165.3 560.8,163.1 561.0,158.5 561.2,159.8 561.4,156.7 561.6,157.8 561.8,154.2 562.0,154.2 562.2,153.0 562.4,154.4 562.6,154.1 562.8,147.2 563.0,148.2 563.2,146.8 563.4,146.9 563.6,148.0 563.8,147.5 564.0,145.2 564.2,146.7 564.4,146.2 564.6,146.2 564.8,147.2 565.0,146.9 565.2,147.2 565.4,147.9 565.6,147.6 565.8,147.6 566.0,147.5 566.2,147.6 566.4,149.0 566.6,143.5 566.8,143.7 567.0,149.1 567.2,146.8 567.4,146.6 567.5,149.1 567.7,153.2 567.9,158.2 568.1,157.8 568.3,156.3 568.5,158.0 568.7,157.7 568.9,155.5 569.1,156.0 569.3,156.7 569.5,156.3 569.7,156.2 569.9,155.7 570.1,157.4 570.3,157.7 570.5,154.6 570.7,151.0 570.9,148.6 571.1,148.0 571.3,149.6 571.5,150.4 571.7,148.1 571.9,148.3 572.1,149.1 572.3,149.3 572.5,149.1 572.7,148.2 572.9,145.9 573.1,145.7 573.3,145.0 573.5,147.9 573.7,147.3 573.9,146.1 574.1,144.5 574.3,140.0 574.5,141.2 574.7,144.3 574.9,149.3 575.1,150.9 575.3,147.3 575.5,150.2 575.7,156.9 575.9,156.4 576.1,156.4 576.2,156.8 576.4,159.4 576.6,159.1 576.8,159.9 577.0,160.8 577.2,164.3 577.4,164.4 577.6,164.6 577.8,164.3 578.0,164.5 578.2,166.1 578.4,168.0 578.6,166.6 578.8,166.6 579.0,167.0 579.2,170.5 579.4,174.2 579.6,176.7 579.8,176.4 580.0,176.9 580.2,176.9 580.4,174.0 580.6,172.8 580.8,174.1 581.0,176.1 581.2,174.1 581.4,175.7 581.6,172.5 581.8,172.8 582.0,170.5 582.2,170.6 582.4,171.3 582.6,166.6 582.8,166.7 583.0,166.1 583.2,163.9 583.4,163.6 583.6,164.6 583.8,167.4 584.0,167.2 584.2,168.0 584.4,168.1 584.6,167.9 584.8,167.4 585.0,169.7 585.1,169.9 585.3,169.2 585.5,168.8 585.7,166.2 585.9,166.7 586.1,166.7 586.3,171.0 586.5,167.8 586.7,168.1 586.9,171.6 587.1,169.2 587.3,170.0 587.5,170.2 587.7,170.3 587.9,170.4 588.1,170.2 588.3,168.3 588.5,168.4 588.7,168.2 588.9,167.1 589.1,167.4 589.3,164.9 589.5,161.7 589.7,163.1 589.9,163.3 590.1,163.5 590.3,163.2 590.5,162.6 590.7,162.3 590.9,162.4 591.1,162.3 591.3,162.5 591.5,165.0 591.7,166.1 591.9,166.0 592.1,168.4 592.3,163.2 592.5,168.0 592.7,168.2 592.9,166.9 593.1,169.4 593.3,171.3 593.5,171.5 593.7,174.2 593.9,172.1 594.0,168.0 594.2,170.1 594.4,169.0 594.6,169.5 594.8,168.9 595.0,167.5 595.2,166.1 595.4,166.3 595.6,166.2 595.8,166.7 596.0,167.5 596.2,170.1 596.4,173.0 596.6,174.7 596.8,175.3 597.0,174.8 597.2,177.0 597.4,177.2 597.6,177.3 597.8,176.8 598.0,176.3 598.2,176.3 598.4,174.7 598.6,174.5 598.8,174.5 599.0,174.7 599.2,174.6 599.4,174.7 599.6,173.1 599.8,173.2 600.0,172.6 600.2,170.8 600.4,171.1 600.6,172.7 600.8,175.1 601.0,178.8 601.2,175.5 601.4,176.3 601.6,176.5 601.8,176.5 602.0,176.2 602.2,177.5 602.4,179.3 602.6,176.1 602.7,177.0 602.9,173.2 603.1,173.3 603.3,171.1 603.5,173.0 603.7,171.6 603.9,170.8 604.1,171.1 604.3,170.2 604.5,169.4 604.7,167.8 604.9,168.7 605.1,169.1 605.3,169.0 605.5,173.4 605.7,172.5 605.9,172.9 606.1,173.4 606.3,172.0 606.5,170.7 606.7,167.3 606.9,168.1 607.1,165.6 607.3,166.5 607.5,165.2 607.7,165.0 607.9,164.9 608.1,164.8 608.3,165.1 608.5,159.5 608.7,161.7 608.9,162.9 609.1,154.9 609.3,154.8 609.5,153.4 609.7,157.4 609.9,157.3 610.1,157.6 610.3,155.2 610.5,154.9 610.7,154.5 610.9,155.1 611.1,156.4 611.3,157.1 611.5,156.8 611.6,156.6 611.8,156.4 612.0,156.5 612.2,157.4 612.4,157.1 612.6,157.7 612.8,158.0 613.0,158.1 613.2,157.4 613.4,158.3 613.6,161.0 613.8,160.6 614.0,159.8 614.2,160.7 614.4,157.6 614.6,160.5 614.8,160.3 615.0,160.1 615.2,160.3 615.4,160.9 615.6,158.8 615.8,153.6 616.0,154.8 616.2,154.1 616.4,157.9 616.6,158.1 616.8,157.8 617.0,160.9 617.2,160.9 617.4,161.5 617.6,161.5 617.8,160.9 618.0,160.5 618.2,160.2 618.4,159.4 618.6,162.9 618.8,165.7 619.0,162.1 619.2,159.7 619.4,159.3 619.6,157.7 619.8,157.9 620.0,157.0 620.2,159.2 620.3,159.3 620.5,157.9 620.7,157.2 620.9,156.9 621.1,157.2 621.3,155.6 621.5,157.2 621.7,157.4 621.9,157.6 622.1,158.5 622.3,158.0 622.5,158.9 622.7,160.7 622.9,162.3 623.1,160.1 623.3,155.6 623.5,155.3 623.7,153.1 623.9,155.0 624.1,154.4 624.3,156.6 624.5,159.4 624.7,160.2 624.9,160.4 625.1,161.9 625.3,162.6 625.5,161.5 625.7,161.1 625.9,163.8 626.1,163.8 626.3,163.5 626.5,164.4 626.7,164.1 626.9,165.8 627.1,166.2 627.3,162.6 627.5,161.9 627.7,161.0 627.9,161.1 628.1,161.4 628.3,152.6 628.5,152.8 628.7,160.5 628.9,160.4 629.1,160.7 629.2,160.7 629.4,161.7 629.6,160.9 629.8,163.5 630.0,166.1 630.2,162.3 630.4,162.5 630.6,161.8 630.8,160.3 631.0,155.8 631.2,155.5 631.4,155.5 631.6,154.4 631.8,155.9 632.0,155.2 632.2,155.1 632.4,155.2 632.6,155.1 632.8,151.4 633.0,152.3 633.2,150.6 633.4,151.1 633.6,154.8 633.8,153.2 634.0,156.8 634.2,156.9 634.4,157.0 634.6,157.2 634.8,156.9 635.0,156.9 635.2,156.8 635.4,157.7 635.6,158.2 635.8,157.6 636.0,160.1 636.2,164.2 636.4,158.1 636.6,158.8 636.8,156.3 637.0,156.3 637.2,156.3 637.4,156.3 637.6,154.0 637.8,150.3 637.9,150.0 638.1,147.6 638.3,147.9 638.5,144.5 638.7,144.4 638.9,144.3 639.1,144.2 639.3,144.1 639.5,144.4 639.7,145.0 639.9,152.4 640.1,151.6 640.3,151.9 640.5,152.1 640.7,154.6 640.9,152.4 641.1,153.1 641.3,153.0 641.5,154.0 641.7,154.1 641.9,153.5 642.1,154.5 642.3,152.5 642.5,150.8 642.7,151.7 642.9,155.7 643.1,159.3 643.3,159.2 643.5,159.6 643.7,159.9 643.9,158.4 644.1,155.6 644.3,157.2 644.5,158.6 644.7,160.6 644.9,159.6 645.1,160.4 645.3,160.5 645.5,157.5 645.7,158.4 645.9,160.4 646.1,158.9 646.3,158.8 646.5,158.8 646.7,160.5 646.8,161.8 647.0,166.2 647.2,166.0 647.4,165.3 647.6,169.5 647.8,172.2 648.0,172.2 648.2,171.3 648.4,170.0 648.6,168.7 648.8,169.6 649.0,170.0 649.2,169.9 649.4,170.1 649.6,171.7 649.8,171.6 650.0,171.1 650.2,170.8 650.4,170.7 650.6,171.0 650.8,171.0 651.0,171.1 651.2,170.7 651.4,170.6 651.6,170.7 651.8,169.8 652.0,170.5 652.2,171.7 652.4,176.1 652.6,175.0 652.8,174.5 653.0,174.1 653.2,173.9 653.4,173.8 653.6,177.5 653.8,180.6 654.0,181.0 654.2,181.1 654.4,180.7 654.6,187.1 654.8,185.4 655.0,183.0 655.2,181.7 655.4,183.0 655.5,180.5 655.7,179.8 655.9,180.2 656.1,179.9 656.3,173.8 656.5,177.9 656.7,176.5 656.9,177.7 657.1,176.5 657.3,176.7 657.5,176.4 657.7,176.4 657.9,175.5 658.1,176.7 658.3,177.0 658.5,175.5 658.7,175.3 658.9,175.2 659.1,174.7 659.3,176.6 659.5,177.1 659.7,177.2 659.9,177.5 660.1,177.3 660.3,171.3 660.5,169.8 660.7,165.9 660.9,165.3 661.1,165.8 661.3,165.5 661.5,165.5 661.7,167.0 661.9,166.8 662.1,168.1 662.3,167.1 662.5,167.4 662.7,165.9 662.9,165.6 663.1,163.3 663.3,163.4 663.5,164.5 663.7,163.7 663.9,164.2 664.1,164.6 664.3,167.2 664.4,165.9 664.6,163.6 664.8,163.2 665.0,163.3 665.2,164.5 665.4,164.6 665.6,163.8 665.8,164.6 666.0,163.6 666.2,163.7 666.4,160.6 666.6,159.9 666.8,159.5 667.0,158.8 667.2,154.7 667.4,153.5 667.6,153.7 667.8,155.2 668.0,154.7 668.2,154.9 668.4,156.3 668.6,158.6 668.8,157.1 669.0,156.9 669.2,156.4 669.4,157.1 669.6,157.0 669.8,157.1 670.0,157.9 670.2,158.0 670.4,157.8 670.6,158.1 670.8,158.5 671.0,151.0 671.2,150.6 671.4,152.4 671.6,149.9 671.8,149.3 672.0,147.8 672.2,152.6 672.4,155.1 672.6,154.9 672.8,152.9 673.0,153.6 673.1,154.8 673.3,155.1 673.5,155.7 673.7,154.9 673.9,151.6 674.1,151.4 674.3,151.9 674.5,151.8 674.7,151.9 674.9,151.9 675.1,151.8 675.3,151.8 675.5,152.0 675.7,153.2 675.9,153.2 676.1,153.1 676.3,153.8 676.5,153.8 676.7,153.5 676.9,153.3 677.1,151.7 677.3,148.8 677.5,147.9 677.7,147.7 677.9,147.8 678.1,148.0 678.3,148.1 678.5,147.6 678.7,147.7 678.9,146.2 679.1,143.3 679.3,142.7 679.5,142.9 679.7,142.9 679.9,143.0 680.1,143.4 680.3,141.1 680.5,140.7 680.7,140.3 680.9,140.1 681.1,139.7 681.3,139.6 681.5,140.0 681.7,136.0 681.9,134.5 682.0,134.8 682.2,135.9 682.4,136.9 682.6,136.3 682.8,135.6 683.0,135.7 683.2,135.5 683.4,135.1 683.6,135.4 683.8,134.9 684.0,134.4 684.2,134.5 684.4,135.4 684.6,136.2 684.8,136.3 685.0,134.5 685.2,132.0 685.4,132.2 685.6,132.8 685.8,132.9 686.0,132.7 686.2,133.0 686.4,133.0 686.6,133.0 686.8,132.8 687.0,129.5 687.2,128.8 687.4,132.1 687.6,130.1 687.8,129.8 688.0,129.8 688.2,128.5 688.4,128.1 688.6,127.3 688.8,122.5 689.0,122.8 689.2,122.4 689.4,122.2 689.6,122.2 689.8,121.6 690.0,118.0 690.2,118.9 690.4,118.8 690.6,120.2 690.7,121.8 690.9,122.3 691.1,123.1 691.3,123.2 691.5,123.4 691.7,122.1 691.9,122.3 692.1,121.6 692.3,121.6 692.5,124.0 692.7,119.7 692.9,119.3 693.1,122.5 693.3,120.7 693.5,120.7 693.7,120.9 693.9,121.5 694.1,117.6 694.3,119.9 694.5,119.5 694.7,119.5 694.9,119.2 695.1,122.4 695.3,121.5 695.5,126.1 695.7,126.3 695.9,126.2 696.1,126.7 696.3,131.4 696.5,137.3 696.7,137.3 696.9,142.1 697.1,141.5 697.3,141.6 697.5,138.1 697.7,138.1 697.9,137.9 698.1,138.7 698.3,138.6 698.5,139.9 698.7,139.7 698.9,139.1 699.1,139.7 699.3,136.4 699.5,137.1 699.6,137.0 699.8,137.2 700.0,134.1 700.2,133.5 700.4,133.1 700.6,132.6 700.8,135.2 701.0,135.0 701.2,135.1 701.4,128.6 701.6,127.8 701.8,130.3 702.0,127.1 702.2,127.1 702.4,127.5 702.6,127.5 702.8,126.6 703.0,127.0 703.2,127.8 703.4,126.4 703.6,125.2 703.8,125.7 704.0,122.3 704.2,118.6 704.4,118.3 704.6,118.2 704.8,121.4 705.0,117.6 705.2,114.2 705.4,113.7 705.6,113.2 705.8,113.2 706.0,111.9 706.2,111.9 706.4,111.7 706.6,107.0 706.8,107.3 707.0,108.5 707.2,108.5 707.4,110.7 707.6,109.0 707.8,109.0 708.0,108.9 708.2,108.9 708.3,108.5 708.5,108.5 708.7,108.1 708.9,108.2 709.1,108.4 709.3,109.4 709.5,109.9 709.7,108.9 709.9,109.3 710.1,109.2 710.3,109.3 710.5,108.9 710.7,108.7 710.9,108.7 711.1,108.4 711.3,109.9 711.5,112.9 711.7,112.6 711.9,112.7 712.1,108.6 712.3,109.6 712.5,109.2 712.7,108.9 712.9,108.5 713.1,109.8 713.3,109.7 713.5,108.4 713.7,104.7 713.9,105.6 714.1,104.8 714.3,104.7 714.5,104.3 714.7,106.1 714.9,104.0 715.1,104.9 715.3,103.5 715.5,103.1 715.7,100.7 715.9,100.6 716.1,99.8 716.3,99.9 716.5,101.5 716.7,101.2 716.9,101.2 717.1,100.7 717.2,99.3 717.4,96.7 717.6,89.9 717.8,91.5 718.0,91.6 718.2,90.8 718.4,85.0 718.6,84.9 718.8,85.0 719.0,88.0 719.2,87.4 719.4,87.1 719.6,82.5 719.8,83.3 720.0,83.2 720.2,83.3 720.4,82.3 720.6,81.7 720.8,80.0 721.0,78.9 721.2,78.4 721.4,79.4 721.6,78.4 721.8,77.1 722.0,74.8 722.2,75.2 722.4,76.2 722.6,77.7 722.8,80.0 723.0,80.0 723.2,78.6 723.4,80.0 723.6,84.4 723.8,84.0 724.0,84.7 724.2,85.4 724.4,84.8 724.6,86.2 724.8,82.3 725.0,89.6 725.2,88.6 725.4,88.5 725.6,89.3 725.8,92.0 725.9,91.0 726.1,90.7 726.3,91.0 726.5,91.8 726.7,92.7 726.9,93.9 727.1,92.0 727.3,86.8 727.5,86.6 727.7,85.9 727.9,86.0 728.1,86.0 728.3,86.4 728.5,86.3 728.7,86.3 728.9,87.0 729.1,89.1 729.3,89.2 729.5,89.2 729.7,90.2 729.9,88.2 730.1,88.2 730.3,83.7 730.5,83.4 730.7,82.9 730.9,81.5 731.1,80.9 731.3,78.1 731.5,80.9 731.7,77.4 731.9,74.4 732.1,78.4 732.3,80.1 732.5,81.1 732.7,79.3 732.9,79.3 733.1,79.2 733.3,78.2 733.5,79.1 733.7,79.0 733.9,76.2 734.1,79.3 734.3,78.9 734.5,79.1 734.7,80.0 734.8,82.9 735.0,82.8 735.2,81.2 735.4,81.4 735.6,80.3 735.8,83.2 736.0,86.5 736.2,89.2 736.4,87.7 736.6,88.0 736.8,87.8 737.0,87.5 737.2,88.1 737.4,87.1 737.6,85.9 737.8,88.1 738.0,88.5 738.2,90.1 738.4,89.2 738.6,87.1 738.8,85.7 739.0,85.2 739.2,84.7 739.4,85.0 739.6,84.5 739.8,84.5 740.0,84.4 740.2,84.3 740.4,83.7 740.6,83.7 740.8,81.0 741.0,79.5 741.2,79.5 741.4,81.2 741.6,80.4 741.8,80.1 742.0,80.2 742.2,80.8 742.4,80.9 742.6,81.1 742.8,76.6 743.0,74.4 743.2,74.7 743.4,75.9 743.5,76.3 743.7,75.9 743.9,77.2 744.1,74.1 744.3,72.7 744.5,68.1 744.7,67.9 744.9,68.1 745.1,68.0 745.3,68.1 745.5,67.9 745.7,67.1 745.9,65.2 746.1,68.1 746.3,70.7 746.5,68.8 746.7,60.7 746.9,60.0 747.1,60.8 747.3,60.6 747.5,61.9 747.7,61.7 747.9,61.1 748.1,59.4 748.3,62.6 748.5,55.4 748.7,54.6 748.9,52.9 749.1,48.3 749.3,46.2 749.5,46.0 749.7,48.7 749.9,45.0 750.1,46.0 750.3,45.0 750.5,42.7 750.7,43.3 750.9,43.0 751.1,46.6 751.3,44.3 751.5,50.6 751.7,48.8 751.9,50.4 752.1,50.2 752.3,50.2 752.4,45.4 752.6,45.5 752.8,45.7 753.0,50.7 753.2,45.9 753.4,46.3 753.6,46.3 753.8,46.3 754.0,46.5 754.2,45.9 754.4,45.5 754.6,47.2 754.8,48.0 755.0,48.2 755.2,50.2 755.4,47.7 755.6,49.6 755.8,50.9 756.0,54.0 756.2,54.8 756.4,52.0 756.6,53.4 756.8,50.1 757.0,50.4 757.2,51.2 757.4,50.8 757.6,50.7 757.8,50.2 758.0,51.2 758.2,51.2 758.4,47.0 758.6,50.5 758.8,51.2 759.0,49.6 759.2,47.2 759.4,44.9 759.6,46.6 759.8,46.7 760.0,46.2 760.2,45.8 760.4,49.5 760.6,50.4 760.8,51.5 761.0,49.2 761.1,51.9 761.3,48.7 761.5,49.5 761.7,48.2 761.9,48.2 762.1,48.2 762.3,49.9 762.5,50.1 762.7,50.9 762.9,51.8 763.1,45.2 763.3,45.2 763.5,44.7 763.7,43.1 763.9,45.0 764.1,51.1 764.3,50.8 764.5,51.0 764.7,50.0 764.9,48.0 765.1,49.0 765.3,48.5 765.5,49.6 765.7,44.9 765.9,50.2 766.1,50.1 766.3,48.5 766.5,47.0 766.7,44.6 766.9,45.8 767.1,46.0 767.3,45.5 767.5,44.7 767.7,45.9 767.9,46.1 768.1,47.1 768.3,46.0 768.5,45.9 768.7,43.7 768.9,44.2 769.1,44.5 769.3,44.9 769.5,44.4 769.7,45.0 769.9,44.2 770.0,45.3 770.2,43.8 770.4,48.2 770.6,50.8 770.8,51.3 771.0,53.0 771.2,53.8 771.4,54.1 771.6,54.1 771.8,55.3 772.0,55.9 772.2,51.3 772.4,51.9 772.6,48.3 772.8,46.7 773.0,47.8 773.2,48.5 773.4,49.8 773.6,52.4 773.8,52.6 774.0,52.7 774.2,52.7 774.4,60.1 774.6,60.8 774.8,64.5 775.0,57.5 775.2,59.1 775.4,57.0 775.6,57.0 775.8,53.5 776.0,52.4 776.2,54.1 776.4,51.7 776.6,50.7 776.8,50.9 777.0,52.1 777.2,52.2 777.4,51.8 777.6,56.4 777.8,55.8 778.0,56.2 778.2,54.3 778.4,59.2 778.6,56.6 778.8,56.3 778.9,57.1 779.1,56.9 779.3,56.5 779.5,57.8 779.7,57.8 779.9,56.1 780.1,56.0 780.3,58.4 780.5,54.0 780.7,51.5 780.9,51.0 781.1,50.9 781.3,49.9 781.5,50.4 781.7,54.8 781.9,54.9 782.1,53.6 782.3,54.8 782.5,57.8 782.7,57.9 782.9,58.1 783.1,60.5 783.3,60.4 783.5,60.6 783.7,62.2 783.9,63.0 784.1,62.9 784.3,62.6 784.5,65.3 784.7,68.4 784.9,65.8 785.1,65.3 785.3,64.3 785.5,63.7 785.7,69.5 785.9,69.2 786.1,68.9 786.3,70.1 786.5,73.3 786.7,73.5 786.9,72.4 787.1,76.9 787.3,76.2 787.5,76.5 787.6,76.3 787.8,79.8 788.0,80.3 788.2,79.4 788.4,80.8 788.6,82.9 788.8,83.0 789.0,83.4 789.2,84.0 789.4,84.8 789.6,82.5 789.8,81.3 790.0,86.2 790.2,86.3 790.4,91.6 790.6,90.5 790.8,85.6 791.0,85.8 791.2,87.8 791.4,87.6 791.6,90.0 791.8,90.0 792.0,90.0 792.2,90.2 792.4,87.1 792.6,88.4 792.8,88.4 793.0,88.3 793.2,87.1 793.4,95.3 793.6,95.2 793.8,94.5 794.0,94.9 794.2,93.5 794.4,90.3 794.6,90.3 794.8,89.9 795.0,88.7 795.2,92.5 795.4,92.8 795.6,92.8 795.8,95.2 796.0,96.2 796.2,98.3 796.4,98.5 796.5,102.2 796.7,100.5 796.9,99.0 797.1,103.0 797.3,102.8 797.5,104.8 797.7,104.9 797.9,104.9 798.1,105.7 798.3,103.6 798.5,103.7 798.7,105.6 798.9,103.7 799.1,102.9 799.3,105.3 799.5,105.3 799.7,105.5 799.9,108.6 800.1,107.2 800.3,107.0 800.5,107.1 800.7,105.9 800.9,105.9 801.1,106.8 801.3,105.0 801.5,105.2 801.7,105.2 801.9,111.8 802.1,111.5 802.3,111.4 802.5,108.4 802.7,109.9 802.9,112.6 803.1,110.5 803.3,108.7 803.5,113.0 803.7,113.3 803.9,110.0 804.1,109.6 804.3,110.3 804.5,113.3 804.7,113.1 804.9,113.3 805.1,112.6 805.2,114.7 805.4,114.0 805.6,114.3 805.8,114.5 806.0,114.4 806.2,112.6 806.4,111.8 806.6,111.4 806.8,112.2 807.0,112.1 807.2,111.7 807.4,110.5 807.6,110.7 807.8,111.0 808.0,111.2 808.2,111.1 808.4,111.0 808.6,111.7 808.8,108.2 809.0,108.1 809.2,108.1 809.4,104.9 809.6,104.8 809.8,105.7 810.0,107.0 810.2,106.0 810.4,103.1 810.6,103.4 810.8,102.7 811.0,100.2 811.2,100.4 811.4,99.2 811.6,99.0 811.8,97.9 812.0,97.8 812.2,97.1 812.4,95.3 812.6,94.6 812.8,95.0 813.0,94.3 813.2,94.7 813.4,96.1 813.6,97.2 813.8,97.4 814.0,96.0 814.1,96.3 814.3,95.9 814.5,94.2 814.7,91.4 814.9,91.2 815.1,93.0 815.3,96.8 815.5,97.4 815.7,94.7 815.9,93.8 816.1,94.6 816.3,94.8 816.5,95.1 816.7,90.3 816.9,92.9 817.1,91.9 817.3,90.1 817.5,90.9 817.7,89.0 817.9,87.6 818.1,85.5 818.3,85.4 818.5,82.7 818.7,86.0 818.9,86.1 819.1,83.2 819.3,83.1 819.5,77.0 819.7,75.4 819.9,77.9 820.1,78.3 820.3,77.9 820.5,75.9 820.7,75.2 820.9,79.4 821.1,78.7 821.3,72.0 821.5,75.9 821.7,75.3 821.9,72.2 822.1,71.1 822.3,65.4 822.5,70.9 822.7,72.8 822.8,72.7 823.0,71.9 823.2,73.0 823.4,72.8 823.6,72.8 823.8,72.4 824.0,74.5 824.2,73.3 824.4,73.7 824.6,76.2 824.8,73.2 825.0,68.0 825.2,71.3 825.4,72.5 825.6,69.3 825.8,76.7 826.0,77.2 826.2,77.1 826.4,77.0 826.6,76.9 826.8,81.3 827.0,81.2 827.2,82.1 827.4,87.0 827.6,86.8 827.8,86.2 828.0,84.9 828.2,84.4 828.4,84.6 828.6,84.4 828.8,76.9 829.0,75.3 829.2,75.9 829.4,76.4 829.6,75.0 829.8,75.6 830.0,77.1 830.2,75.3 830.4,75.6 830.6,75.8 830.8,76.6 831.0,76.6 831.2,77.0 831.4,76.0 831.6,77.2 831.7,77.3 831.9,76.7 832.1,76.9 832.3,76.1 832.5,76.3 832.7,77.1 832.9,76.9 833.1,79.1 833.3,79.3 833.5,80.5 833.7,80.4 833.9,76.2 834.1,76.8 834.3,76.5 834.5,81.4 834.7,78.8 834.9,75.8 835.1,74.2 835.3,75.9 835.5,75.8 835.7,77.0 835.9,77.4 836.1,80.7 836.3,82.6 836.5,80.1 836.7,79.9 836.9,81.1 837.1,80.0 837.3,74.5 837.5,73.6 837.7,74.0 837.9,74.3 838.1,74.1 838.3,74.1 838.5,75.2 838.7,75.2 838.9,76.0 839.1,77.2 839.3,76.5 839.5,79.3 839.7,78.1 839.9,78.1 840.1,78.0 840.3,78.1 840.4,81.2 840.6,82.4 840.8,82.4 841.0,82.8 841.2,84.4 841.4,87.4 841.6,89.0 841.8,89.3 842.0,88.9 842.2,89.1 842.4,88.5 842.6,90.6 842.8,88.8 843.0,88.6 843.2,83.8 843.4,83.5 843.6,86.0 843.8,86.8 844.0,86.7 844.2,86.6 844.4,87.7 844.6,87.1 844.8,87.0 845.0,86.2 845.2,83.0 845.4,83.7 845.6,85.9 845.8,86.2 846.0,83.8 846.2,82.2 846.4,83.5 846.6,84.3 846.8,82.3 847.0,80.2 847.2,80.9 847.4,78.9 847.6,77.2 847.8,74.8 848.0,74.8 848.2,74.7 848.4,74.7 848.6,76.6 848.8,74.3 849.0,74.0 849.2,74.1 849.3,74.4 849.5,73.4 849.7,78.7 849.9,77.9 850.1,79.5 850.3,77.7 850.5,75.7 850.7,76.3 850.9,74.8 851.1,76.3 851.3,75.4 851.5,74.4 851.7,74.4 851.9,72.6 852.1,72.6 852.3,74.4 852.5,73.3 852.7,73.5 852.9,74.2 853.1,76.7 853.3,76.7 853.5,78.0 853.7,77.8 853.9,78.1 854.1,79.3 854.3,75.7 854.5,77.8 854.7,78.1 854.9,76.7 855.1,78.6 855.3,76.6 855.5,76.1 855.7,77.2 855.9,77.3 856.1,78.6 856.3,78.7 856.5,80.4 856.7,82.9 856.9,83.2 857.1,82.3 857.3,81.1 857.5,81.9 857.7,80.9 857.9,80.2 858.0,85.6 858.2,86.8 858.4,88.1 858.6,89.3 858.8,89.5 859.0,89.5 859.2,90.2 859.4,89.9 859.6,90.9 859.8,92.9 860.0,90.3 860.2,91.3 860.4,92.1 860.6,96.2 860.8,98.7 861.0,99.4 861.2,97.5 861.4,96.6 861.6,96.7 861.8,97.0 862.0,98.8 862.2,98.5 862.4,98.3 862.6,99.4 862.8,97.4 863.0,97.4 863.2,96.8 863.4,97.8 863.6,97.6 863.8,100.7 864.0,95.9 864.2,95.1 864.4,93.5 864.6,92.3 864.8,102.6 865.0,106.3 865.2,106.6 865.4,106.6 865.6,105.8 865.8,106.2 866.0,103.3 866.2,102.8 866.4,101.0 866.6,97.5 866.8,92.4 866.9,91.3 867.1,91.5 867.3,91.5 867.5,91.1 867.7,91.4 867.9,91.8 868.1,87.5 868.3,90.1 868.5,87.9 868.7,85.4 868.9,86.9 869.1,87.3 869.3,86.9 869.5,86.8 869.7,86.8 869.9,86.4 870.1,81.3 870.3,82.2 870.5,82.1 870.7,81.2 870.9,80.8 871.1,81.2 871.3,80.8 871.5,80.7 871.7,83.1 871.9,83.9 872.1,83.8 872.3,78.9 872.5,79.4 872.7,79.5 872.9,81.5 873.1,81.9 873.3,82.9 873.5,83.2 873.7,90.0 873.9,89.7 874.1,89.7 874.3,89.1 874.5,88.0 874.7,84.8 874.9,88.2 875.1,88.3 875.3,87.7 875.5,89.0 875.6,88.6 875.8,88.5 876.0,87.5 876.2,85.1 876.4,88.6 876.6,88.6 876.8,87.7 877.0,87.4 877.2,87.7 877.4,88.6 877.6,87.4 877.8,87.5 878.0,87.2 878.2,80.2 878.4,84.5 878.6,84.9 878.8,85.5 879.0,82.7 879.2,73.8 879.4,74.0 879.6,73.8 879.8,77.2 880.0,80.7" fill="none" stroke="#2a7d2e" stroke-width="1.5"/>
  <text x="70" y="408" font-size="11" fill="#666">round 1</text>
  <text x="880" y="408" font-size="11" fill="#666" text-anchor="end">round 94,200</text>
</svg>
